# xmcd
#
# Track frame offsets:
#	150
#	20505
#	36802
#	50657
#	67228
#	82986
#	97387
#	114288
#	131929
#	149162
#	164939
#	182008
#
# Disc length: 2646 seconds
#
# Revision: 2
# Processed by: cddbd v1.5.2PL0 Copyright (c) Steve Scherf et al.
# Submitted via: EZCDAudioConverter 7.2.0.1
#
DISCID=be0a540c
DTITLE=Lee Brice - Love Like Crazy
DYEAR=2010
DGENRE=Country
TTITLE0=Picture Of Me
TTITLE1=Love Like Crazy
TTITLE2=Some Things
TTITLE3=Power Of A Woman
TTITLE4=Beautiful Every Time
TTITLE5=She Ain`t Right
TTITLE6=Falling Apart Together
TTITLE7=Sumter County Friday Night
TTITLE8=Carolina Boys
TTITLE9=Four On The Floor
TTITLE10=These Last Few Days
TTITLE11=Happy Endings
EXTD=
EXTT0=
EXTT1=
EXTT2=
EXTT3=
EXTT4=
EXTT5=
EXTT6=
EXTT7=
EXTT8=
EXTT9=
EXTT10=
EXTT11=
PLAYORDER=
